<?xml version="1.0" encoding="UTF-8" standalone="no"?>

<svg
   version="1.1"
   id="svg2"
   width="4406.6133"
   height="4395.5601"
   viewBox="0 0 4406.6133 4395.5601"
   sodipodi:docname="vecteezy_nuclear-fission-glyph-icon_15832195.eps"
   xmlns:inkscape="http://www.inkscape.org/namespaces/inkscape"
   xmlns:sodipodi="http://sodipodi.sourceforge.net/DTD/sodipodi-0.dtd"
   xmlns="http://www.w3.org/2000/svg"
   xmlns:svg="http://www.w3.org/2000/svg">
  <defs
     id="defs6">
    <linearGradient
       x1="0"
       y1="0"
       x2="1"
       y2="0"
       gradientUnits="userSpaceOnUse"
       gradientTransform="matrix(-0.00321722,73601.4,73601.4,0.00321722,16524.7,-20317.3)"
       spreadMethod="pad"
       id="linearGradient16">
      <stop
         style="stop-opacity:1;stop-color:#5d3e98"
         offset="0"
         id="stop12" />
      <stop
         style="stop-opacity:1;stop-color:#774e9f"
         offset="1"
         id="stop14" />
    </linearGradient>
    <linearGradient
       x1="0"
       y1="0"
       x2="1"
       y2="0"
       gradientUnits="userSpaceOnUse"
       gradientTransform="matrix(-6.185e-4,14148.9,14148.9,6.185e-4,16512.5,9930.4)"
       spreadMethod="pad"
       id="linearGradient24">
      <stop
         style="stop-opacity:1;stop-color:#5d3e98"
         offset="0"
         id="stop20" />
      <stop
         style="stop-opacity:1;stop-color:#774e9f"
         offset="1"
         id="stop22" />
    </linearGradient>
    <linearGradient
       x1="0"
       y1="0"
       x2="1"
       y2="0"
       gradientUnits="userSpaceOnUse"
       gradientTransform="matrix(-6.394e-4,14627.1,14627.1,6.394e-4,16542.8,8984.2)"
       spreadMethod="pad"
       id="linearGradient32">
      <stop
         style="stop-opacity:1;stop-color:#5d3e98"
         offset="0"
         id="stop28" />
      <stop
         style="stop-opacity:1;stop-color:#774e9f"
         offset="1"
         id="stop30" />
    </linearGradient>
    <linearGradient
       x1="0"
       y1="0"
       x2="1"
       y2="0"
       gradientUnits="userSpaceOnUse"
       gradientTransform="matrix(6.96e-5,-5837.74,-5837.74,-6.96e-5,30130.6,27257.5)"
       spreadMethod="pad"
       id="linearGradient40">
      <stop
         style="stop-opacity:1;stop-color:#185f96"
         offset="0"
         id="stop36" />
      <stop
         style="stop-opacity:1;stop-color:#20c4f4"
         offset="1"
         id="stop38" />
    </linearGradient>
    <linearGradient
       x1="0"
       y1="0"
       x2="1"
       y2="0"
       gradientUnits="userSpaceOnUse"
       gradientTransform="matrix(6.96e-5,-5837.87,-5837.87,-6.96e-5,2918.93,27257.7)"
       spreadMethod="pad"
       id="linearGradient48">
      <stop
         style="stop-opacity:1;stop-color:#f8951d"
         offset="0"
         id="stop44" />
      <stop
         style="stop-opacity:1;stop-color:#f26122"
         offset="1"
         id="stop46" />
    </linearGradient>
    <linearGradient
       x1="0"
       y1="0"
       x2="1"
       y2="0"
       gradientUnits="userSpaceOnUse"
       gradientTransform="matrix(6.96e-5,-5838,-5838,-6.96e-5,27947.1,9984.5)"
       spreadMethod="pad"
       id="linearGradient56">
      <stop
         style="stop-opacity:1;stop-color:#b94d9c"
         offset="0"
         id="stop52" />
      <stop
         style="stop-opacity:1;stop-color:#813d97"
         offset="1"
         id="stop54" />
    </linearGradient>
    <linearGradient
       x1="0"
       y1="0"
       x2="1"
       y2="0"
       gradientUnits="userSpaceOnUse"
       gradientTransform="matrix(6.96e-5,-5838,-5838,-6.96e-5,5314.14,9984.5)"
       spreadMethod="pad"
       id="linearGradient64">
      <stop
         style="stop-opacity:1;stop-color:#e0a962"
         offset="0"
         id="stop60" />
      <stop
         style="stop-opacity:1;stop-color:#f0c077"
         offset="1"
         id="stop62" />
    </linearGradient>
    <linearGradient
       x1="0"
       y1="0"
       x2="1"
       y2="0"
       gradientUnits="userSpaceOnUse"
       gradientTransform="matrix(5.31e-5,-4449.54,-4449.54,-5.31e-5,16524.6,21179.3)"
       spreadMethod="pad"
       id="linearGradient72">
      <stop
         style="stop-opacity:1;stop-color:#e0a962"
         offset="0"
         id="stop68" />
      <stop
         style="stop-opacity:1;stop-color:#f0c077"
         offset="1"
         id="stop70" />
    </linearGradient>
    <linearGradient
       x1="0"
       y1="0"
       x2="1"
       y2="0"
       gradientUnits="userSpaceOnUse"
       gradientTransform="matrix(6.84e-5,-5738.52,-5738.52,-6.84e-5,19073.4,17144.6)"
       spreadMethod="pad"
       id="linearGradient80">
      <stop
         style="stop-opacity:1;stop-color:#e0a962"
         offset="0"
         id="stop76" />
      <stop
         style="stop-opacity:1;stop-color:#f0c077"
         offset="1"
         id="stop78" />
    </linearGradient>
    <linearGradient
       x1="0"
       y1="0"
       x2="1"
       y2="0"
       gradientUnits="userSpaceOnUse"
       gradientTransform="matrix(6.84e-5,-5734.18,-5734.18,-6.84e-5,13916.4,17571.9)"
       spreadMethod="pad"
       id="linearGradient88">
      <stop
         style="stop-opacity:1;stop-color:#e0a962"
         offset="0"
         id="stop84" />
      <stop
         style="stop-opacity:1;stop-color:#f0c077"
         offset="1"
         id="stop86" />
    </linearGradient>
    <linearGradient
       x1="0"
       y1="0"
       x2="1"
       y2="0"
       gradientUnits="userSpaceOnUse"
       gradientTransform="matrix(5.76e-5,-4829.68,-4829.68,-5.76e-5,16524.7,18715.4)"
       spreadMethod="pad"
       id="linearGradient102">
      <stop
         style="stop-opacity:1;stop-color:#e0a962"
         offset="0"
         id="stop98" />
      <stop
         style="stop-opacity:1;stop-color:#f0c077"
         offset="1"
         id="stop100" />
    </linearGradient>
  </defs>
  <sodipodi:namedview
     id="namedview4"
     pagecolor="#ffffff"
     bordercolor="#000000"
     borderopacity="0.25"
     inkscape:showpageshadow="2"
     inkscape:pageopacity="0.0"
     inkscape:pagecheckerboard="0"
     inkscape:deskcolor="#d1d1d1" />
  <g
     id="g8"
     inkscape:groupmode="layer"
     inkscape:label="ink_ext_XXXXXX"
     transform="matrix(1.3333333,0,0,-1.3333333,0,4395.56)">
    <g
       id="g10"
       transform="scale(0.1)">
      <path
         d="m 16524.7,31421.4 c -2819.4,0 -5837.9,-6002.6 -5837.9,-14938 0,-8935.5 3018.5,-14938.2 5837.9,-14938.2 2819.1,0 5837.7,6002.7 5837.7,14938.2 0.3,8935.7 -3018.4,14938 -5837.7,14938 z M 16524.7,0 c -4140.2,0 -7383.18,7240.1 -7383.18,16483.4 0,9242.9 3243.08,16483.3 7383.18,16483.3 4140.2,0 7383.2,-7240.4 7383.2,-16483.3 C 23907.9,7240.1 20664.9,0 16524.7,0 v 0"
         style="fill:url(#linearGradient16);fill-opacity:1;fill-rule:evenodd;stroke:none"
         id="path18" />
      <path
         d="m 3391.38,7246.9 c 198.83,0 397.92,76.2 548.82,228.8 300.6,303.1 298.24,792.6 -4.99,1092.9 -138.69,137.6 -255.7,287.3 -347.23,445.7 -1409.8,2441.6 2279.44,8057.1 10018.02,12524.6 5657.4,3266.4 11650.6,4689.4 14575,3459.5 393.7,-164.9 846.5,19.7 1011.7,413.2 165.3,393.2 -19.6,846.1 -413.1,1011.8 -3394.3,1426 -9802.5,1.1 -15946.5,-3546 C 4828.49,18256.1 179.785,11827.3 2249.89,8241.3 c 160.35,-277.4 361.67,-536.9 597.66,-770.6 150.9,-149.5 347.24,-223.8 543.83,-223.8 z M 7467.9,5990.3 c -10.38,0 -20.36,0 -30.74,0 -223.51,0.8 -435.74,97.8 -581.91,266.6 -146.29,168.7 -212.61,392.4 -181.49,613.9 9.19,65.1 14.05,130.5 14.05,194.9 0,426.8 345.79,772.4 772.73,772.4 242.69,0 459.51,-112.1 601.08,-287.1 3213.58,160.3 7408.98,1582.8 11382.18,3876.8 5261.8,3037.6 9287.7,7125.1 10144.8,10214.1 -142.1,140.1 -230.6,335.1 -230.6,550.5 0,426.9 345.9,772.6 772.7,772.6 78,0 156.8,6.8 233.7,19.9 240.6,40.6 487.5,-34.9 664,-203.9 176.8,-169.4 262.7,-412.1 232,-654.8 -462,-3652.7 -4900.1,-8489.7 -11044.1,-12036.9 -4513.4,-2605.8 -9157.9,-4099 -12748.4,-4099 v 0"
         style="fill:url(#linearGradient24);fill-opacity:1;fill-rule:evenodd;stroke:none"
         id="path26" />
      <path
         d="m 29792.4,7388.7 c 213.3,0 425.7,88 578.9,260.6 165.5,186.4 309.9,386.1 428.6,592.2 1048.5,1816.3 444.4,4374 -1701.4,7202.5 -2005.9,2645.1 -5160.4,5285.3 -8881.7,7433.7 -6144.1,3546.8 -12552.31,4971.2 -15946.58,3545.7 -393.72,-165.7 -578.63,-618.5 -413.29,-1011.8 165.48,-393.6 618.29,-578.6 1011.61,-413.2 2924.26,1229.9 8918.16,-193.1 14575.26,-3459.2 3547.2,-2048.1 6538.8,-4544.2 8423.6,-7029.2 1720.4,-2268 2301.4,-4271 1593.8,-5495.7 -67.2,-116.9 -150.3,-231.4 -246.9,-340.7 -283.2,-319.1 -253.2,-807.6 66.2,-1090.5 147.1,-130.6 329.6,-194.4 511.9,-194.4 z M 25584.7,5990.3 c -3545.1,0 -8286.2,1521.1 -12751.6,4098.8 -6143.71,3547.4 -10581.9,8384.4 -11043.91,12037.1 -30.6,242.4 55.69,485.5 232.06,654.7 176.64,169.2 422.61,244.6 663.99,203.8 77.22,-13.1 155.88,-19.8 233.89,-19.8 426.94,0 772.73,-345.8 772.73,-772.8 0,-215.3 -88.26,-410.4 -230.48,-550.5 857.17,-3089.2 4883.25,-7176.5 10145.02,-10214.3 4075.8,-2353.1 8348.1,-3778.8 11586.9,-3884.9 141.3,179.9 361.4,295.7 608.1,295.7 427,0 772.7,-345.6 772.7,-772.4 0,-63.4 5,-128.8 13.7,-193.6 30.4,-218.5 -33.9,-439.7 -177.1,-607.8 -143.1,-167.8 -351.4,-266.6 -572,-271.1 -84.1,-1.5 -168.9,-2.9 -254,-2.9 v 0"
         style="fill:url(#linearGradient32);fill-opacity:1;fill-rule:evenodd;stroke:none"
         id="path34" />
      <path
         d="m 30130.4,21419.8 c -1609.3,0 -2918.8,1309.5 -2918.8,2919 0,1609.5 1309.3,2918.7 2918.8,2918.7 1609.6,0 2919.2,-1309.3 2919.2,-2918.7 0,-1609.4 -1309.6,-2919 -2919.2,-2919"
         style="fill:url(#linearGradient40);fill-opacity:1;fill-rule:evenodd;stroke:none"
         id="path42" />
      <path
         d="M 2918.87,21419.8 C 1309.59,21419.8 0,22729.3 0,24338.8 c 0,1609.5 1309.59,2918.9 2918.87,2918.9 1609.41,0 2919,-1309.4 2919,-2918.6 0,-1609.5 -1309.46,-2919.3 -2919,-2919.3"
         style="fill:url(#linearGradient48);fill-opacity:1;fill-rule:evenodd;stroke:none"
         id="path50" />
      <path
         d="m 27947.3,4146.5 c -1609.6,0 -2919.2,1309.6 -2919.2,2919.2 0,1609.2 1309.6,2918.8 2919.2,2918.8 1609.5,0 2918.8,-1309.6 2918.8,-2918.8 0,-1609.6 -1309.3,-2919.2 -2918.8,-2919.2"
         style="fill:url(#linearGradient56);fill-opacity:1;fill-rule:evenodd;stroke:none"
         id="path58" />
      <path
         d="m 5314.14,4146.5 c -1609.41,0 -2919,1309.6 -2919,2919.2 0,1609.2 1309.45,2918.8 2919,2918.8 1609.54,0 2918.99,-1309.6 2918.99,-2918.8 0,-1609.6 -1309.45,-2919.2 -2918.99,-2919.2"
         style="fill:url(#linearGradient64);fill-opacity:1;fill-rule:evenodd;stroke:none"
         id="path66" />
      <path
         d="m 14708.3,17317.4 -859,2843.4 c -70.9,234.3 -26.6,487.7 119.1,684 145.8,196.5 375.9,312.1 620.6,312.1 h 3871.5 c 244.2,0 474.3,-115.6 620.4,-312.1 145.7,-196 189.9,-449.7 119.2,-684 L 18341,17317.4 c -359.9,-1191.8 -3587.1,-150.4 -3632.7,0"
         style="fill:url(#linearGradient72);fill-opacity:1;fill-rule:evenodd;stroke:none"
         id="path74" />
      <path
         d="m 19093.2,11810 c -212.2,0 -416.6,87.4 -563.4,244 l -2032.4,2165 c -790.2,841.8 1753.7,3160.8 1816.5,3146.1 l 2891.3,-677.7 c 238.2,-55.8 435.7,-221 532.4,-445.2 97.2,-224.3 82.7,-481.4 -39.7,-693.4 l -1935.7,-3352.5 c -122.4,-211.7 -337.5,-352.7 -580.2,-381.1 -30,-3.4 -59.4,-5.2 -88.8,-5.2"
         style="fill:url(#linearGradient80);fill-opacity:1;fill-rule:evenodd;stroke:none"
         id="path82" />
      <path
         d="m 13956.4,11810 c -29.5,0 -59,1.8 -88.8,5.2 -242.7,28.1 -458.2,169.4 -580.6,381.1 l -1935.6,3352.5 c -122.4,212 -137.1,469.1 -40.1,693.4 97.2,224.2 295,389.4 532.9,445.2 l 2891.6,677.7 c 415,96.5 2107.5,-2835.4 1815.7,-3146.1 L 14519,12054 c -146.2,-156.3 -350.7,-244 -562.6,-244"
         style="fill:url(#linearGradient88);fill-opacity:1;fill-rule:evenodd;stroke:none"
         id="path90" />
      <path
         d="m 15629.7,19611.6 293.7,-972 c 192.2,49.5 393.8,75.8 601.3,75.8 207.5,0 409,-26.3 601.2,-75.8 l 293.7,972 h -1789.9"
         style="fill:#333333;fill-opacity:1;fill-rule:evenodd;stroke:none"
         id="path92" />
      <path
         d="m 18248.5,14611.2 695.8,-741 895.1,1550.2 -988.4,231.7 c -110.8,-397.7 -321.2,-754.1 -602.5,-1040.9"
         style="fill:#333333;fill-opacity:1;fill-rule:evenodd;stroke:none"
         id="path94" />
      <path
         d="m 13209.8,15420.4 895,-1550.2 695.9,741.2 c -281.1,286.8 -491.3,643.3 -602.3,1040.7 l -988.6,-231.7"
         style="fill:#333333;fill-opacity:1;fill-rule:evenodd;stroke:none"
         id="path96" />
      <path
         d="m 16524.7,13885.7 c -1331.5,0 -2414.8,1083.5 -2414.8,2414.8 0,1331.6 1083.3,2414.9 2414.8,2414.9 1331.4,0 2414.8,-1083.3 2414.8,-2414.9 0,-1331.3 -1083.1,-2414.8 -2414.8,-2414.8"
         style="fill:url(#linearGradient102);fill-opacity:1;fill-rule:evenodd;stroke:none"
         id="path104" />
      <path
         d="m 16524.7,17170.5 c -479.5,0 -869.5,-390.2 -869.5,-870 0,-479.6 390,-869.6 869.5,-869.6 479.6,0 869.7,390 869.7,869.6 0,479.8 -390.1,870 -869.7,870"
         style="fill:#333333;fill-opacity:1;fill-rule:evenodd;stroke:none"
         id="path106" />
    </g>
  </g>
</svg>
